<svg width="38" height="37" viewBox="0 0 38 37" fill="none" xmlns="http://www.w3.org/2000/svg">
  <path d="M19.3303 34.889C18.2974 34.889 17.2491 34.6577 16.432 34.1798L7.95286 29.2927C4.49952 26.9648 4.28369 26.6102 4.28369 22.9565V14.0456C4.28369 10.3919 4.48411 10.0373 7.87577 7.74021L16.4166 2.80687C18.0353 1.86646 20.5791 1.86646 22.1978 2.80687L30.7078 7.70938C34.1611 10.0373 34.377 10.3919 34.377 14.0456V22.941C34.377 26.5948 34.1766 26.9494 30.7849 29.2465L22.2441 34.1798C21.4116 34.6577 20.3632 34.889 19.3303 34.889ZM19.3303 4.42563C18.6828 4.42563 18.0507 4.54896 17.6036 4.81104L9.12452 9.71354C6.61161 11.4094 6.61161 11.4094 6.61161 14.0456V22.941C6.61161 25.5773 6.61161 25.5773 9.18619 27.3194L17.6036 32.1756C18.5132 32.6998 20.1628 32.6998 21.0724 32.1756L29.5516 27.2731C32.0491 25.5773 32.0491 25.5773 32.0491 22.941V14.0456C32.0491 11.4094 32.0491 11.4094 29.4745 9.66729L21.057 4.81104C20.6099 4.54896 19.9778 4.42563 19.3303 4.42563Z" fill="#1A1A1A"/>
  <path d="M19.3301 24.2812C16.1388 24.2812 13.5488 21.6912 13.5488 18.5C13.5488 15.3088 16.1388 12.7188 19.3301 12.7188C22.5213 12.7188 25.1113 15.3088 25.1113 18.5C25.1113 21.6912 22.5213 24.2812 19.3301 24.2812ZM19.3301 15.0312C17.4184 15.0312 15.8613 16.5883 15.8613 18.5C15.8613 20.4117 17.4184 21.9688 19.3301 21.9688C21.2417 21.9688 22.7988 20.4117 22.7988 18.5C22.7988 16.5883 21.2417 15.0312 19.3301 15.0312Z" fill="#1A1A1A"/>
</svg>
